<svg xmlns="http://www.w3.org/2000/svg"  viewBox="0 0 32 32" width="32px" height="32px"><path d="M 25.068359 2 L 25.001953 2.9296875 C 24.924946 4.0077906 24.817991 5.0189372 24.697266 6 L 4 6 L 4 19 L 21.183594 19 C 20.347523 20.78247 19.72728 21.677043 19.480469 22 L 7 22 L 7 24 L 20.46875 24 L 20.767578 23.640625 C 20.767578 23.640625 22.130157 21.987278 23.546875 18.638672 C 24.891968 15.459362 26.280257 10.557576 26.857422 4 L 30 4 L 30 2 L 25.068359 2 z M 6 8 L 24.417969 8 C 23.800611 11.859103 22.889954 14.866541 22 17.117188 L 22 17 L 6 17 L 6 8 z M 10.041016 26.304688 C 9.423995 28.401649 8.2226562 29.898436 8.2226562 29.898438 L 9.7773438 31.15625 C 9.7773438 31.15625 11.216005 29.394179 11.958984 26.869141 L 10.041016 26.304688 z M 17.041016 26.304688 C 16.423995 28.401649 15.222656 29.898436 15.222656 29.898438 L 16.777344 31.15625 C 16.777344 31.15625 18.216005 29.394179 18.958984 26.869141 L 17.041016 26.304688 z"/></svg>